<svg id="svg" xmlns="http://www.w3.org/2000/svg" xmlns:xlink="http://www.w3.org/1999/xlink" width="400" height="400" viewBox="0, 0, 400,400"><g id="svgg"><path id="path0" d="M191.250 0.100 C 190.792 0.133,189.104 0.241,187.500 0.340 C 91.942 6.274,10.189 85.551,0.844 181.342 C 0.148 188.474,0.083 190.067,0.083 200.000 C 0.083 209.933,0.148 211.526,0.844 218.658 C 9.963 312.139,87.861 390.037,181.342 399.156 C 188.474 399.852,190.067 399.917,200.000 399.917 C 209.933 399.917,211.526 399.852,218.658 399.156 C 312.140 390.037,390.037 312.140,399.156 218.658 C 399.852 211.526,399.917 209.933,399.917 200.000 C 399.917 147.031,378.544 96.925,339.557 58.495 C 304.833 24.266,261.687 4.329,213.833 0.400 C 210.815 0.152,193.730 -0.075,191.250 0.100 M208.833 36.667 C 298.161 41.485,363.500 110.485,363.500 200.000 C 363.500 292.855,292.855 363.500,200.000 363.500 C 99.776 363.500,26.606 281.167,37.514 180.667 C 46.955 93.686,120.463 31.900,208.833 36.667 M222.750 68.900 C 211.645 70.723,202.919 79.081,200.459 90.250 C 199.916 92.716,199.915 99.461,200.458 101.876 C 205.165 122.836,230.443 130.741,246.075 116.142 C 262.195 101.088,254.703 73.854,233.144 69.141 C 231.138 68.702,224.842 68.556,222.750 68.900 M195.882 159.475 C 178.629 162.285,164.444 164.658,164.358 164.750 C 164.272 164.842,163.816 166.117,163.343 167.583 C 162.870 169.050,162.338 170.693,162.160 171.234 L 161.838 172.219 165.377 172.106 C 177.820 171.710,183.093 176.493,181.520 186.750 C 180.490 193.467,180.112 194.841,165.085 246.500 C 151.361 293.678,150.986 294.989,150.257 298.374 C 147.961 309.029,148.937 316.552,153.394 322.569 C 158.354 329.266,165.527 332.486,175.506 332.497 C 193.440 332.516,210.015 321.309,226.239 298.196 C 229.041 294.204,234.981 284.786,235.417 283.645 C 235.505 283.412,229.561 279.667,229.103 279.667 C 229.049 279.667,228.240 280.810,227.306 282.208 C 217.876 296.309,209.701 305.354,204.892 307.009 C 201.094 308.315,197.564 305.649,197.598 301.500 C 197.631 297.413,196.927 299.976,219.739 220.862 C 230.241 184.440,238.833 154.571,238.833 154.487 C 238.833 154.396,236.476 154.340,233.042 154.350 L 227.250 154.367 195.882 159.475 " stroke="none" fill="#000000" fill-rule="evenodd"></path></g></svg>